<svg width="40" height="40" viewBox="0 0 40 40" fill="none" xmlns="http://www.w3.org/2000/svg">
<rect width="40" height="40" rx="20" fill="#E5E5E5"/>
<path d="M18.5 28.5H13.1136V11.0455H18.7386C20.4318 11.0455 21.8807 11.3949 23.0852 12.0938C24.2898 12.7869 25.2131 13.7841 25.8551 15.0852C26.4972 16.3807 26.8182 17.9318 26.8182 19.7386C26.8182 21.5568 26.4943 23.1222 25.8466 24.4347C25.1989 25.7415 24.2557 26.7472 23.017 27.4517C21.7784 28.1506 20.2727 28.5 18.5 28.5ZM15.2273 26.625H18.3636C19.8068 26.625 21.0028 26.3466 21.9517 25.7898C22.9006 25.233 23.608 24.4403 24.0739 23.4119C24.5398 22.3835 24.7727 21.1591 24.7727 19.7386C24.7727 18.3295 24.5426 17.1165 24.0824 16.0994C23.6222 15.0767 22.9347 14.2926 22.0199 13.7472C21.1051 13.196 19.9659 12.9205 18.6023 12.9205H15.2273V26.625Z" fill="#757575"/>
</svg>
